<svg width="20" height="20" viewBox="0 0 20 20" fill="none" xmlns="http://www.w3.org/2000/svg">
<path d="M15 10.8333H10.8334V15C10.8334 15.221 10.7456 15.433 10.5893 15.5893C10.433 15.7455 10.221 15.8333 10 15.8333C9.77901 15.8333 9.56705 15.7455 9.41076 15.5893C9.25448 15.433 9.16669 15.221 9.16669 15V10.8333H5.00002C4.77901 10.8333 4.56705 10.7455 4.41076 10.5893C4.25448 10.433 4.16669 10.221 4.16669 10C4.16669 9.779 4.25448 9.56704 4.41076 9.41075C4.56705 9.25447 4.77901 9.16668 5.00002 9.16668H9.16669V5.00001C9.16669 4.779 9.25448 4.56703 9.41076 4.41075C9.56705 4.25447 9.77901 4.16668 10 4.16668C10.221 4.16668 10.433 4.25447 10.5893 4.41075C10.7456 4.56703 10.8334 4.779 10.8334 5.00001V9.16668H15C15.221 9.16668 15.433 9.25447 15.5893 9.41075C15.7456 9.56704 15.8334 9.779 15.8334 10C15.8334 10.221 15.7456 10.433 15.5893 10.5893C15.433 10.7455 15.221 10.8333 15 10.8333Z" fill="currentColor"/>
</svg>
